<?xml version="1.0" standalone="no"?>
<!DOCTYPE svg PUBLIC "-//W3C//DTD SVG 20010904//EN"
 "http://www.w3.org/TR/2001/REC-SVG-20010904/DTD/svg10.dtd">
<svg version="1.0" xmlns="http://www.w3.org/2000/svg"
 width="512.000000pt" height="512.000000pt" viewBox="0 0 512.000000 512.000000"
 preserveAspectRatio="xMidYMid meet">

<g transform="translate(0.000000,512.000000) scale(0.100000,-0.100000)"
fill="#000000" stroke="none">
<path d="M3650 3960 c-184 -44 -380 -104 -444 -137 -17 -8 -57 -33 -88 -54
-47 -32 -113 -66 -133 -69 -3 0 -10 -2 -17 -5 -7 -2 -49 -16 -93 -30 -72 -24
-202 -87 -215 -104 -3 -4 -30 -22 -60 -41 -52 -33 -248 -175 -280 -203 -43
-38 -151 -117 -193 -142 -46 -26 -52 -27 -137 -21 -57 5 -118 3 -167 -5 -72
-12 -91 -19 -254 -105 -14 -8 -42 -30 -62 -49 -20 -19 -40 -35 -44 -35 -5 0
-14 -9 -21 -20 -7 -11 -17 -20 -23 -20 -6 0 -18 -8 -27 -18 -10 -10 -13 -12
-8 -5 5 8 6 16 4 19 -9 8 -50 -55 -43 -66 4 -6 -6 -10 -24 -10 -19 0 -40 -9
-53 -22 -21 -21 -73 -30 -643 -108 l-620 -85 -3 -1313 -2 -1312 2560 0 2560 0
0 1660 c0 1321 -3 1660 -12 1660 -15 0 -880 -117 -920 -124 -22 -4 -28 -2 -28
13 0 14 -6 17 -27 14 -24 -4 -25 -3 -10 7 20 13 23 35 4 27 -10 -4 -13 9 -11
53 1 32 4 62 8 68 3 6 2 12 -4 14 -6 2 -7 39 -2 103 15 184 4 297 -34 357 -13
21 -24 41 -24 44 0 4 -12 17 -27 30 l-28 24 -7 -52 c-5 -29 -20 -105 -35 -168
-15 -63 -26 -119 -25 -123 4 -15 -99 -341 -133 -422 -7 -16 -20 -50 -29 -74
-10 -24 -24 -54 -32 -65 -14 -20 -27 -8 -347 313 l-332 333 35 18 c19 10 38
16 42 13 5 -2 8 1 8 7 0 6 5 8 10 5 6 -3 10 -1 10 6 0 7 3 10 6 6 4 -3 19 0
35 8 15 8 36 16 46 18 10 2 34 10 54 19 39 17 68 27 96 33 10 2 37 10 60 19
61 22 322 83 362 85 19 1 41 6 48 12 7 6 20 9 28 5 8 -3 15 -1 15 4 0 6 12 10
28 11 26 0 26 1 -8 14 -55 21 -163 16 -290 -15z m-330 -675 c195 -195 356
-361 358 -368 1 -7 -12 -35 -29 -62 -88 -138 -170 -255 -212 -305 -41 -48
-259 -271 -343 -350 -76 -72 -278 -230 -294 -230 -5 0 -10 -3 -10 -8 0 -4 -26
-23 -57 -41 -32 -19 -60 -38 -63 -41 -5 -7 -121 -73 -224 -127 -33 -18 -96
-47 -139 -64 l-78 -32 -33 32 c-31 30 -34 31 -85 21 -87 -16 -115 -8 -174 53
-28 30 -58 63 -65 73 -7 10 -10 12 -6 4 4 -8 -21 12 -54 44 -34 33 -58 64 -55
69 3 6 1 7 -6 3 -20 -13 -25 24 -12 102 11 74 11 77 -12 100 -23 22 -23 26
-11 65 8 23 23 60 34 82 11 22 26 56 35 75 8 19 19 42 23 50 5 8 17 31 27 50
10 19 22 37 25 40 4 3 15 21 25 40 61 120 259 386 392 528 49 52 90 98 91 103
2 5 10 9 18 9 9 0 13 4 9 9 -3 6 5 15 17 22 12 7 38 29 58 49 19 20 76 70 125
109 50 40 97 78 106 85 34 27 134 93 143 94 5 0 12 4 15 9 9 13 71 55 71 48 0
-4 27 7 35 15 1 0 160 -160 355 -355z m-1302 -293 c25 -14 21 -30 -21 -72 -28
-30 -117 -157 -169 -243 -20 -34 -42 -68 -48 -74 -13 -15 -130 -248 -130 -260
-1 -4 -9 -26 -20 -48 -11 -22 -19 -45 -20 -51 -1 -30 -48 -62 -101 -69 -30 -3
-91 -13 -137 -21 -45 -9 -91 -14 -102 -12 -18 3 -18 4 2 53 45 111 169 384
203 445 7 14 30 57 49 96 43 83 65 113 127 174 61 61 89 80 115 80 13 0 26 5
30 11 9 15 191 7 222 -9z m1022 -1021 c5 -11 10 -64 10 -119 0 -92 -2 -104
-31 -158 -17 -32 -41 -70 -53 -83 -24 -28 -172 -126 -231 -153 -22 -10 -56
-28 -75 -40 -19 -11 -39 -21 -45 -22 -5 -1 -63 -28 -128 -59 -65 -31 -124 -57
-130 -57 -7 0 -21 -6 -32 -14 -32 -22 -135 -55 -140 -45 -6 9 5 84 35 226 11
51 20 94 20 97 0 4 52 26 71 30 33 6 252 111 310 150 14 9 29 13 32 9 4 -3 7
-2 7 3 0 6 19 21 43 34 23 13 44 26 47 30 3 3 39 28 80 55 41 27 99 69 128 92
60 49 67 51 82 24z m-1257 -229 c140 -140 149 -152 154 -194 7 -63 -23 -119
-83 -154 -76 -44 -261 -117 -268 -105 -3 4 1 25 7 48 6 24 8 45 5 48 -3 3 -36
-6 -74 -21 -152 -59 -167 -64 -172 -59 -8 7 48 172 73 217 15 26 6 46 -14 34
-16 -10 -81 -17 -81 -9 0 7 28 87 61 173 20 51 76 136 102 153 30 19 54 24
101 21 37 -3 52 -15 189 -152z"/>
<path d="M2945 3162 c-7 -7 -11 -8 -38 -11 -25 -2 -97 -73 -113 -110 -26 -57
-26 -148 0 -196 23 -43 74 -94 94 -95 6 0 12 -4 12 -10 0 -5 7 -7 15 -4 8 4
15 2 15 -4 0 -6 8 -8 18 -6 9 2 40 5 67 7 63 5 82 13 121 51 76 75 91 174 40
261 -16 28 -37 56 -45 63 -26 22 -84 45 -121 49 -19 2 -40 5 -47 8 -6 2 -14 1
-18 -3z"/>
<path d="M2398 2647 c-44 -23 -121 -113 -114 -134 3 -6 2 -13 -1 -16 -9 -9
-10 -97 -1 -97 4 0 7 -3 7 -7 -4 -28 7 -49 51 -95 28 -29 50 -49 50 -46 0 4
16 0 35 -8 45 -19 119 -13 171 14 44 23 94 74 94 98 0 8 3 14 8 14 15 0 13
103 -4 153 -30 93 -92 137 -196 143 -43 2 -68 -3 -100 -19z"/>
</g>
</svg>
