<?xml version="1.0" encoding="UTF-8"?>
<!DOCTYPE svg PUBLIC "-//W3C//DTD SVG 1.1//EN" "http://www.w3.org/Graphics/SVG/1.1/DTD/svg11.dtd">
<svg xmlns="http://www.w3.org/2000/svg" version="1.1" width="32px" height="32px" style="shape-rendering:geometricPrecision; text-rendering:geometricPrecision; image-rendering:optimizeQuality; fill-rule:evenodd; clip-rule:evenodd" xmlns:xlink="http://www.w3.org/1999/xlink">
<g><path style="opacity:1" fill="#0dd6fb" d="M -0.5,-0.5 C 10.1667,-0.5 20.8333,-0.5 31.5,-0.5C 31.5,-0.166667 31.5,0.166667 31.5,0.5C 20.8158,1.31203 10.1491,2.31203 -0.5,3.5C -0.5,2.16667 -0.5,0.833333 -0.5,-0.5 Z"/></g>
<g><path style="opacity:1" fill="#14c7f8" d="M 31.5,0.5 C 31.5,1.16667 31.5,1.83333 31.5,2.5C 20.8012,3.17073 10.1345,4.17073 -0.5,5.5C -0.5,4.83333 -0.5,4.16667 -0.5,3.5C 10.1491,2.31203 20.8158,1.31203 31.5,0.5 Z"/></g>
<g><path style="opacity:1" fill="#1bbaf6" d="M 31.5,2.5 C 31.5,3.16667 31.5,3.83333 31.5,4.5C 20.7856,5.00601 10.119,6.00601 -0.5,7.5C -0.5,6.83333 -0.5,6.16667 -0.5,5.5C 10.1345,4.17073 20.8012,3.17073 31.5,2.5 Z"/></g>
<g><path style="opacity:1" fill="#24acf4" d="M 31.5,4.5 C 31.5,5.5 31.5,6.5 31.5,7.5C 29.1667,7.5 26.8333,7.5 24.5,7.5C 23.0011,6.50596 21.3344,6.50596 19.5,7.5C 12.8234,8.07288 6.15669,8.73954 -0.5,9.5C -0.5,8.83333 -0.5,8.16667 -0.5,7.5C 10.119,6.00601 20.7856,5.00601 31.5,4.5 Z"/></g>
<g><path style="opacity:1" fill="#3c9bef" d="M 19.5,7.5 C 21.1723,10.3371 20.5056,11.0038 17.5,9.5C 14.5606,11.3607 11.5606,13.0274 8.5,14.5C 8.56544,14.0618 8.39877,13.7284 8,13.5C 5.17368,14.2129 2.34035,14.8796 -0.5,15.5C -0.5,13.5 -0.5,11.5 -0.5,9.5C 6.15669,8.73954 12.8234,8.07288 19.5,7.5 Z"/></g>
<g><path style="opacity:1" fill="#dfe0f1" d="M 24.5,7.5 C 23.2711,12.2853 21.2711,16.6187 18.5,20.5C 16.9328,23.8052 14.9328,24.1385 12.5,21.5C 11.1585,23.0049 9.49181,23.6715 7.5,23.5C 7.5,22.5 7.5,21.5 7.5,20.5C 11.4647,19.5159 11.4647,18.5159 7.5,17.5C 8.12723,16.5832 8.46056,15.5832 8.5,14.5C 11.5606,13.0274 14.5606,11.3607 17.5,9.5C 20.5056,11.0038 21.1723,10.3371 19.5,7.5C 21.3344,6.50596 23.0011,6.50596 24.5,7.5 Z"/></g>
<g><path style="opacity:1" fill="#4578ea" d="M 24.5,7.5 C 26.8333,7.5 29.1667,7.5 31.5,7.5C 31.5,10.8333 31.5,14.1667 31.5,17.5C 27.0913,18.2063 22.7579,19.2063 18.5,20.5C 21.2711,16.6187 23.2711,12.2853 24.5,7.5 Z"/></g>
<g><path style="opacity:1" fill="#3449c9" d="M 14.5,15.5 C 17.0009,15.5109 17.1676,16.1776 15,17.5C 14.5357,16.9056 14.369,16.2389 14.5,15.5 Z"/></g>
<g><path style="opacity:1" fill="#4e70e9" d="M 8.5,14.5 C 8.46056,15.5832 8.12723,16.5832 7.5,17.5C 11.4647,18.5159 11.4647,19.5159 7.5,20.5C 6.59603,21.209 6.26269,22.209 6.5,23.5C 4.16667,23.5 1.83333,23.5 -0.5,23.5C -0.5,20.8333 -0.5,18.1667 -0.5,15.5C 2.34035,14.8796 5.17368,14.2129 8,13.5C 8.39877,13.7284 8.56544,14.0618 8.5,14.5 Z"/></g>
<g><path style="opacity:1" fill="#6157e5" d="M 31.5,17.5 C 31.5,19.1667 31.5,20.8333 31.5,22.5C 20.8554,23.9972 10.1887,25.3306 -0.5,26.5C -0.5,25.5 -0.5,24.5 -0.5,23.5C 1.83333,23.5 4.16667,23.5 6.5,23.5C 6.26269,22.209 6.59603,21.209 7.5,20.5C 7.5,21.5 7.5,22.5 7.5,23.5C 9.49181,23.6715 11.1585,23.0049 12.5,21.5C 14.9328,24.1385 16.9328,23.8052 18.5,20.5C 22.7579,19.2063 27.0913,18.2063 31.5,17.5 Z"/></g>
<g><path style="opacity:1" fill="#7348e4" d="M 31.5,23.5 C 31.5,24.1667 31.5,24.8333 31.5,25.5C 20.8463,26.9267 10.1796,28.26 -0.5,29.5C -0.5,29.1667 -0.5,28.8333 -0.5,28.5C 10.2363,27.123 20.903,25.4563 31.5,23.5 Z"/></g>
<g><path style="opacity:1" fill="#6d4ee5" d="M 31.5,22.5 C 31.5,22.8333 31.5,23.1667 31.5,23.5C 20.903,25.4563 10.2363,27.123 -0.5,28.5C -0.5,27.8333 -0.5,27.1667 -0.5,26.5C 10.1887,25.3306 20.8554,23.9972 31.5,22.5 Z"/></g>
<g><path style="opacity:1" fill="#7f3be2" d="M 31.5,25.5 C 31.5,27.5 31.5,29.5 31.5,31.5C 20.8333,31.5 10.1667,31.5 -0.5,31.5C -0.5,30.8333 -0.5,30.1667 -0.5,29.5C 10.1796,28.26 20.8463,26.9267 31.5,25.5 Z"/></g>
</svg>
